<?xml version="1.0" standalone="no"?>
<!DOCTYPE svg PUBLIC "-//W3C//DTD SVG 20010904//EN"
 "http://www.w3.org/TR/2001/REC-SVG-20010904/DTD/svg10.dtd">
<svg version="1.0" xmlns="http://www.w3.org/2000/svg"
 width="428.000000pt" height="534.000000pt" viewBox="0 0 428.000000 534.000000"
 preserveAspectRatio="xMidYMid meet">
<metadata>
Created by potrace 1.16, written by Peter Selinger 2001-2019
</metadata>
<g transform="translate(0.000000,534.000000) scale(0.100000,-0.100000)"
fill="#000000" stroke="none">
<path d="M505 5331 c-6 -5 -35 -21 -65 -37 -60 -31 -234 -143 -265 -171 -11
-10 -42 -35 -70 -55 -104 -75 -94 -22 -95 -523 -1 -242 0 -519 1 -615 l1 -175
14 75 c29 151 36 181 40 177 2 -2 0 -33 -5 -68 -42 -269 -50 -344 -49 -419 1
-85 1 -85 8 -25 5 49 7 37 9 -70 2 -71 5 -121 7 -110 3 11 14 67 25 125 27
147 50 218 69 213 12 -4 13 -3 1 5 -16 11 -3 63 17 70 15 5 15 -37 2 -128 -5
-36 -11 -106 -15 -156 -9 -152 -63 -555 -96 -717 -33 -163 -31 -118 -29 -672
l1 -129 19 29 c11 17 20 35 20 41 0 6 8 22 19 35 10 13 20 29 21 34 4 16 24
60 30 65 11 10 87 169 78 164 -4 -3 3 11 17 32 14 20 25 43 25 50 0 7 13 42
29 78 31 66 64 169 64 196 0 8 3 17 7 20 8 6 30 103 24 109 -2 2 -8 -9 -14
-25 -6 -16 -18 -36 -25 -44 -7 -8 -13 -17 -12 -20 1 -7 -137 -290 -140 -286
-2 1 6 29 18 62 11 32 22 66 24 74 2 8 33 105 69 215 36 110 77 247 91 305 14
58 30 119 34 136 5 21 3 56 -8 102 -17 76 -39 104 -36 47 2 -33 -4 -72 -46
-300 -27 -150 -79 -377 -91 -395 -9 -15 -7 1 8 70 21 97 36 172 44 215 6 28
14 72 20 99 5 27 15 90 20 140 11 91 27 210 36 255 4 18 8 21 17 12 9 -9 8
-14 -3 -21 -13 -8 -13 -10 1 -10 11 0 21 -20 32 -67 43 -171 63 -237 76 -241
9 -3 11 1 7 14 -12 39 -56 267 -52 271 4 4 15 -23 21 -51 1 -6 6 -22 12 -36 6
-14 25 -68 43 -120 27 -79 80 -204 121 -282 5 -10 9 -24 9 -32 0 -7 10 -17 23
-21 12 -3 17 -9 10 -11 -9 -4 -9 -11 -1 -29 6 -14 15 -22 20 -19 5 3 8 2 7 -3
-6 -24 39 -143 54 -143 5 0 7 -7 3 -15 -3 -8 -1 -15 4 -15 4 0 14 -16 20 -35
6 -19 16 -35 21 -35 5 0 9 -11 9 -25 0 -14 5 -25 10 -25 6 0 15 -11 20 -25 5
-14 17 -28 26 -32 12 -4 13 -8 3 -14 -10 -6 -8 -12 9 -27 12 -11 22 -27 22
-36 0 -9 7 -19 15 -22 8 -4 15 -12 15 -19 0 -6 9 -20 20 -30 11 -10 20 -24 20
-31 0 -7 8 -17 17 -23 10 -5 15 -13 11 -17 -11 -11 12 -34 33 -34 15 0 17 -4
9 -24 -7 -20 -5 -25 12 -29 15 -4 18 -11 13 -26 -5 -17 -2 -21 14 -21 12 0 22
-4 22 -10 1 -5 2 -15 3 -21 0 -6 9 -16 19 -23 9 -7 17 -20 17 -27 0 -8 9 -20
20 -27 11 -7 17 -18 14 -27 -4 -9 0 -15 10 -15 8 0 18 -11 22 -25 3 -14 15
-30 25 -36 10 -5 18 -13 18 -17 -4 -22 3 -32 22 -32 14 0 19 -5 16 -14 -3 -8
1 -20 9 -26 11 -10 14 -8 14 13 0 19 -7 28 -27 35 -16 6 -22 11 -15 11 17 1
15 28 -4 35 -9 3 -14 12 -12 18 3 7 -3 21 -13 31 -10 11 -15 25 -12 32 2 8 -5
19 -18 25 -17 10 -19 14 -8 21 11 8 9 13 -10 29 -18 15 -19 20 -7 20 9 0 16
-4 16 -8 0 -4 15 -24 34 -44 19 -20 37 -45 41 -57 3 -12 13 -21 21 -21 8 0 14
-6 14 -14 0 -8 10 -22 22 -30 12 -9 19 -18 15 -22 -7 -8 17 -34 32 -34 6 0 11
-11 11 -25 0 -15 6 -25 14 -25 8 0 17 -11 20 -24 3 -13 15 -26 26 -29 13 -3
18 -11 14 -20 -3 -10 5 -21 24 -33 17 -10 28 -23 25 -31 -3 -7 2 -13 11 -13
14 0 20 -11 17 -32 0 -4 10 -15 24 -24 14 -9 22 -20 20 -25 -3 -4 6 -16 20
-25 14 -9 25 -22 25 -30 0 -7 9 -18 20 -24 11 -6 20 -17 20 -26 0 -8 7 -17 16
-21 8 -3 20 -16 25 -29 4 -13 15 -24 24 -24 8 0 15 -7 15 -17 0 -16 8 -27 59
-79 13 -13 21 -24 16 -24 -4 0 8 -17 26 -37 27 -31 30 -39 16 -41 -9 -2 -24 4
-33 12 -8 9 -25 16 -37 17 -21 0 -21 1 -2 9 l20 9 -20 2 c-11 1 -24 3 -30 4
-5 2 -18 3 -28 4 -11 1 -15 6 -11 12 4 8 0 9 -15 4 -11 -3 -29 -1 -38 5 -16
10 -16 11 2 5 13 -4 17 -3 10 4 -5 5 -28 11 -50 13 -32 2 -40 7 -40 23 0 12
-8 21 -19 23 -11 3 -28 15 -38 27 -16 20 -70 55 -86 55 -2 0 -2 -11 0 -24 3
-16 0 -27 -9 -30 -8 -3 -12 -10 -9 -15 3 -4 -43 -8 -102 -8 -63 0 -138 -7
-181 -17 -41 -9 -76 -15 -78 -12 -2 2 9 7 24 11 27 6 27 7 9 21 -11 8 -30 11
-45 8 -21 -5 -23 -3 -11 6 13 10 13 11 0 7 -22 -5 -26 -57 -5 -57 9 0 13 -4
10 -10 -3 -5 -12 -10 -19 -10 -13 0 -68 -31 -170 -97 -51 -33 -141 -124 -157
-158 -12 -27 -31 -55 -51 -79 -10 -11 -18 -23 -18 -28 0 -4 -14 -36 -30 -70
-17 -34 -35 -81 -41 -103 -5 -22 -14 -49 -19 -60 -10 -21 -46 -173 -61 -260
-9 -49 -12 -237 -6 -305 2 -19 4 -50 5 -67 l2 -33 941 0 942 0 -7 41 c-4 26
-3 38 4 34 5 -3 10 -16 10 -28 0 -12 5 -29 11 -37 8 -11 9 0 5 40 -5 54 4 43
18 -22 5 -21 12 -28 29 -28 l23 0 -19 73 c-11 39 -21 81 -22 92 -7 55 -37 95
-74 96 -17 1 -20 3 -9 6 10 2 18 9 18 15 0 5 -7 7 -16 4 -10 -4 -14 -1 -11 6
2 7 -6 29 -18 48 -26 41 -45 95 -45 124 0 26 -70 102 -83 90 -7 -8 -18 46 -12
56 4 6 2 10 -3 10 -9 0 -25 61 -27 101 0 9 -7 24 -14 33 -7 9 -10 16 -6 16 5
0 0 9 -10 20 -9 10 -15 26 -11 35 3 9 0 18 -7 20 -6 3 -13 17 -13 31 -1 14
-12 36 -25 50 -12 13 -21 26 -18 28 12 12 57 -9 74 -35 11 -16 27 -31 35 -34
8 -3 26 -21 39 -40 13 -20 37 -43 53 -52 15 -10 28 -21 28 -25 0 -13 294 -308
307 -308 7 0 13 -5 13 -11 0 -14 132 -149 142 -143 4 2 12 -6 19 -18 12 -24
106 -138 123 -150 6 -4 14 -4 18 -2 4 3 5 -2 2 -10 -3 -9 6 -27 23 -43 16 -16
32 -36 36 -46 3 -9 13 -17 21 -17 8 0 16 -5 18 -11 2 -6 24 -9 52 -7 l48 3
-59 71 c-118 143 -187 219 -239 261 -29 23 -54 46 -56 50 -1 5 -25 26 -53 48
-27 22 -74 65 -103 95 -243 251 -358 374 -392 420 -14 19 -35 44 -47 56 -13
12 -23 24 -23 28 0 12 -102 136 -112 136 -5 0 -7 4 -4 9 3 5 -6 21 -19 37 -43
49 -50 58 -45 59 3 1 -7 16 -22 34 -16 18 -28 36 -28 41 0 5 -9 12 -20 15 -11
3 -20 12 -20 19 0 8 -7 19 -15 26 -8 7 -15 20 -15 30 0 10 -7 20 -15 24 -8 3
-15 13 -15 23 0 10 -9 24 -20 31 -11 6 -17 18 -14 26 3 7 -2 16 -10 19 -9 4
-16 16 -16 28 0 13 -8 23 -21 26 -12 4 -18 11 -15 20 3 7 -3 21 -13 29 -10 9
-17 24 -14 33 3 11 -4 21 -19 28 -13 7 -17 12 -9 12 11 1 10 6 -3 26 -15 23
-15 25 -1 25 9 0 13 -4 10 -10 -4 -6 7 -10 24 -10 33 0 42 -16 14 -23 -17 -4
-17 -5 0 -6 10 0 15 -5 12 -11 -3 -5 2 -10 13 -10 25 0 34 -10 21 -26 -8 -9
-5 -15 10 -24 12 -6 21 -17 21 -24 0 -8 7 -19 15 -26 9 -7 14 -18 12 -24 -2
-6 7 -19 19 -29 13 -10 21 -24 18 -31 -3 -9 3 -17 16 -21 13 -4 19 -12 16 -21
-3 -7 5 -21 18 -31 12 -10 21 -24 18 -31 -2 -6 3 -15 12 -18 9 -3 16 -15 16
-25 0 -11 7 -22 15 -25 8 -4 15 -15 15 -25 0 -11 7 -22 15 -25 8 -4 15 -14 15
-25 0 -10 9 -24 20 -32 11 -8 17 -16 14 -20 -5 -5 39 -72 57 -87 3 -3 8 -11
10 -18 7 -22 133 -191 147 -196 8 -4 -5 28 -28 71 -22 42 -39 82 -36 90 3 7
-1 13 -8 13 -8 0 -16 8 -20 17 -3 10 -9 25 -12 33 -4 8 10 -3 30 -25 20 -22
36 -45 36 -51 0 -6 9 -19 20 -29 11 -10 18 -21 15 -24 -2 -4 7 -15 21 -25 13
-11 24 -24 24 -30 0 -6 8 -19 18 -28 34 -32 62 -66 62 -76 0 -6 3 -12 8 -14 4
-1 25 -25 47 -53 57 -70 295 -312 295 -298 0 6 -7 16 -16 24 -9 7 -30 33 -47
58 -17 25 -33 48 -37 51 -3 3 -16 21 -29 40 -13 21 4 6 43 -35 36 -38 66 -75
66 -82 0 -6 11 -20 25 -31 13 -11 21 -22 18 -26 -3 -3 -1 -6 5 -6 7 0 12 -5
12 -10 0 -6 18 -33 40 -61 22 -28 40 -49 40 -46 0 5 70 -56 127 -110 19 -18
47 -42 64 -53 l29 -21 1 33 c1 30 2 29 13 -15 10 -41 17 -51 54 -72 37 -21 42
-22 38 -7 -7 21 72 102 98 102 12 0 15 7 12 23 -3 12 -7 47 -10 77 -9 84 -91
285 -122 297 -8 3 -14 10 -14 17 0 14 -120 139 -180 187 -25 20 -65 48 -90 62
-40 23 -50 25 -88 16 -23 -5 -55 -6 -70 -2 -15 4 -29 8 -32 8 -3 1 -18 7 -35
14 -16 6 -36 14 -42 16 -7 2 -10 11 -7 20 4 8 2 21 -4 28 -5 6 -10 19 -10 27
-1 28 -11 80 -17 90 -3 5 -6 61 -6 124 -1 75 -5 116 -11 116 -6 0 -3 9 8 21
16 17 16 22 4 30 -13 8 -12 12 5 25 17 13 18 16 5 25 -13 8 -13 11 3 23 20 15
23 36 5 36 -8 0 -5 7 6 15 11 8 17 18 13 22 -4 3 -49 10 -99 14 -104 8 -189
24 -218 39 -10 5 -27 10 -37 10 -10 0 -39 11 -65 25 -26 14 -55 25 -66 25 -10
0 -28 11 -40 25 -12 14 -30 25 -39 25 -22 1 -53 23 -53 39 0 6 -9 11 -20 11
-12 0 -24 10 -30 24 -5 13 -22 28 -40 35 -17 6 -29 15 -25 21 7 12 45 14 45 2
0 -8 37 -17 210 -49 80 -15 147 -18 420 -16 179 0 320 -1 314 -4 -8 -3 -9 -16
-3 -41 6 -27 4 -41 -7 -53 -8 -8 -11 -19 -7 -22 3 -4 -1 -15 -11 -25 -10 -12
-14 -26 -10 -37 5 -12 4 -16 -3 -12 -14 9 -37 -19 -28 -33 4 -6 -1 -18 -11
-26 -14 -11 -15 -17 -6 -20 6 -3 12 -11 12 -19 0 -7 13 -18 30 -25 35 -14 66
-41 65 -55 0 -5 -35 -45 -78 -88 -43 -44 -77 -86 -75 -94 2 -9 26 -23 53 -32
58 -19 133 -60 139 -78 3 -7 -14 -35 -38 -64 -49 -59 -51 -91 -7 -108 14 -5
79 -15 144 -20 64 -6 148 -19 185 -30 67 -20 112 -24 112 -9 0 4 5 8 11 8 15
0 4 -44 -42 -168 -22 -58 -39 -112 -39 -120 0 -22 94 -10 179 23 l68 26 -3 47
c-3 38 -2 41 4 17 15 -56 54 -110 84 -117 20 -4 20 4 2 47 -26 61 -31 257 -10
365 28 140 55 215 123 343 18 34 41 78 50 97 33 64 107 184 150 244 24 32 43
66 43 75 0 22 -43 -30 -76 -92 -14 -27 -40 -69 -58 -95 -18 -26 -50 -77 -70
-114 -40 -72 -60 -94 -27 -31 10 21 42 78 70 126 28 49 51 91 51 93 0 3 11 30
25 60 14 30 25 57 25 59 0 3 9 24 20 48 75 163 104 261 53 181 -9 -15 -9 -11
0 16 7 19 15 37 19 40 16 12 80 155 94 212 17 67 23 102 29 193 4 54 3 56 -6
25 -6 -19 -14 -57 -19 -85 -4 -27 -15 -76 -25 -108 -9 -32 -14 -65 -11 -73 3
-8 -1 -14 -9 -14 -7 0 -16 -13 -20 -29 -7 -33 -94 -215 -100 -209 -2 2 6 26
19 53 13 28 27 65 31 84 l7 33 -38 -6 c-22 -3 -112 -13 -201 -22 -154 -16
-166 -16 -230 0 -78 21 -129 42 -139 58 -5 7 -2 8 7 3 8 -5 4 3 -9 17 -17 19
-20 27 -10 31 8 3 5 6 -6 6 -16 1 -17 4 -8 13 7 7 12 22 12 35 0 13 5 23 11
23 6 0 9 9 6 19 -3 12 3 27 13 36 10 9 16 23 13 31 -3 8 0 14 6 14 6 0 11 11
11 24 0 14 5 28 11 32 6 3 8 15 6 26 -3 12 0 21 10 25 8 3 13 13 10 24 -3 11
-1 22 5 25 5 3 8 15 5 25 -3 10 -1 22 4 25 6 3 7 14 4 24 -3 10 -1 21 5 25 7
4 9 18 6 31 -4 14 -2 24 4 24 7 0 8 6 0 19 -6 12 -6 22 -1 25 5 3 7 45 5 93
-5 111 -7 128 -22 145 -8 10 -8 18 -1 25 8 8 8 17 0 32 -8 15 -8 21 -1 21 7 0
7 8 -2 23 -7 12 -11 29 -10 39 2 9 -2 19 -8 23 -6 3 -8 11 -4 16 3 5 0 16 -6
24 -7 8 -10 24 -7 35 3 11 2 20 -2 20 -4 0 -12 24 -18 53 -6 28 -14 63 -17 77
-3 14 -9 40 -12 58 -3 17 -10 32 -15 32 -13 0 -31 -50 -25 -66 3 -8 1 -16 -4
-19 -12 -8 -38 33 -46 73 -7 36 -27 57 -48 49 -8 -3 -20 2 -28 11 -8 10 -9 13
-1 9 8 -5 11 -1 10 12 0 11 -5 17 -9 15 -4 -3 -8 -2 -8 3 0 4 -15 8 -33 8 -37
0 -87 -34 -87 -59 0 -9 -7 -19 -15 -22 -12 -5 -12 -10 -3 -27 7 -12 11 -25 10
-29 -3 -14 83 -39 114 -33 18 3 35 1 39 -5 3 -5 1 -10 -4 -10 -15 0 -14 -27 1
-32 9 -3 7 -10 -6 -24 -18 -17 -18 -19 -3 -22 33 -6 17 -20 -24 -20 -42 -1
-64 -13 -64 -35 0 -7 -13 -13 -29 -15 -16 -2 -39 -10 -50 -17 -25 -17 -86 -22
-106 -10 -11 7 -10 10 5 15 17 6 17 8 -4 27 -13 12 -19 26 -15 36 3 10 1 17
-5 17 -6 0 -11 10 -12 23 0 21 -1 21 -9 2 l-9 -20 -1 20 c-1 18 -1 19 -11 2
-5 -9 -7 -22 -4 -28 4 -5 1 -17 -6 -25 -10 -13 -10 -17 0 -24 8 -4 10 -13 7
-19 -4 -6 -12 -9 -17 -6 -5 4 -9 -1 -9 -9 0 -9 5 -16 12 -16 6 0 9 -2 6 -5 -2
-3 -19 0 -37 6 -24 8 -29 14 -20 20 10 6 3 12 -23 24 -21 8 -42 15 -47 15 -6
0 -8 7 -5 15 4 11 -3 19 -25 26 -19 7 -30 17 -27 24 3 8 -12 19 -37 29 -30 12
-38 19 -29 25 10 6 5 11 -18 20 -27 9 -30 9 -21 -3 9 -11 9 -15 -1 -19 -7 -3
4 -12 25 -21 24 -11 37 -23 37 -35 0 -11 8 -21 17 -23 10 -2 18 -12 18 -23 0
-13 8 -21 23 -23 27 -4 29 -22 2 -22 -13 0 -17 -5 -14 -14 4 -11 0 -13 -16 -9
-13 3 -17 9 -11 12 6 4 -13 16 -42 26 -28 10 -56 24 -62 31 -5 6 -28 17 -50
24 -22 7 -47 18 -55 25 -8 7 -32 20 -52 30 -21 9 -38 23 -38 30 0 7 -18 15
-40 19 -36 6 -58 26 -28 26 19 0 -25 29 -44 30 -10 0 -22 8 -27 19 -13 23 -46
38 -38 17 3 -8 1 -16 -6 -19 -6 -2 2 -10 18 -18 18 -9 29 -21 27 -31 -1 -10 7
-18 23 -22 17 -4 25 -12 23 -23 -2 -10 8 -22 24 -30 19 -10 25 -19 21 -33 -3
-11 -10 -20 -15 -20 -18 0 -48 21 -48 34 0 7 -13 16 -30 20 -29 5 -43 26 -17
26 6 0 -7 9 -31 20 -24 11 -41 24 -37 30 3 5 -10 17 -29 27 -28 13 -33 19 -25
30 9 10 8 13 -3 13 -24 0 -18 -37 8 -48 14 -7 21 -17 18 -25 -3 -10 4 -17 21
-21 20 -5 25 -11 20 -26 -5 -15 0 -21 19 -26 19 -4 26 -13 26 -29 0 -17 7 -25
23 -27 12 -2 22 -7 22 -13 0 -19 16 -35 36 -35 17 0 24 -11 20 -32 0 -5 18 -8
41 -8 l43 0 -27 -18 -27 -18 21 -21 21 -21 -29 3 c-16 2 -47 8 -69 14 -22 6
-51 13 -65 16 -14 4 -36 2 -50 -3 -23 -9 -22 -10 18 -17 23 -4 42 -11 42 -16
0 -5 19 -9 43 -10 l42 -1 -35 -12 c-20 -7 -65 -12 -105 -10 l-70 3 80 -15 c95
-18 119 -33 55 -36 l-45 -1 45 -7 c36 -6 28 -7 -47 -8 -51 -1 -93 -6 -93 -11
0 -14 -32 -23 -44 -11 -7 7 -6 10 4 10 20 0 -4 23 -27 26 -134 19 -178 23
-196 20 -67 -14 -77 -17 -74 -28 1 -7 -8 -14 -21 -16 -13 -2 -22 -8 -20 -14 5
-13 70 -32 183 -53 94 -17 135 -19 135 -5 0 6 8 10 18 10 14 0 15 -2 2 -10
-13 -8 -12 -10 3 -10 31 0 18 -20 -15 -21 l-33 -2 30 -5 c26 -4 28 -5 10 -12
-19 -8 -19 -9 2 -9 36 -1 37 -21 1 -22 -18 0 -26 -3 -18 -6 19 -7 30 -24 24
-35 -7 -12 -44 -10 -44 2 0 6 -13 10 -30 10 -16 0 -30 -4 -30 -10 0 -5 -10
-11 -22 -12 -13 -1 9 -4 47 -8 63 -5 67 -7 45 -17 -16 -7 -19 -12 -10 -14 8
-1 -3 -5 -25 -9 l-40 -7 35 -2 c27 -1 31 -4 20 -11 -8 -5 -28 -10 -45 -11 -29
-1 -30 -1 -5 -9 19 -6 12 -8 -30 -8 -45 0 -50 2 -25 8 l30 8 -35 1 c-27 1 -31
4 -20 11 8 5 29 10 45 11 20 1 24 3 11 6 -15 4 -16 7 -5 14 11 7 11 9 -3 9 -9
0 -18 5 -20 11 -5 16 -78 2 -78 -14 0 -16 -67 -39 -110 -38 -23 1 -30 -2 -21
-8 17 -11 6 -17 -51 -25 -32 -5 -48 -12 -48 -22 0 -8 7 -14 15 -14 17 0 19 -9
7 -28 -5 -7 -16 -10 -25 -6 -9 3 -14 10 -11 15 3 5 -14 18 -38 28 -24 11 -36
20 -28 20 25 2 -6 23 -38 27 -22 2 -31 -1 -35 -15 -6 -23 2 -35 27 -45 19 -6
19 -7 0 -21 -24 -18 -41 -19 -51 -2 -4 7 -34 21 -65 32 -32 10 -53 22 -47 25
12 8 -57 30 -97 31 l-29 0 25 12 c32 15 42 29 27 39 -7 4 -1 11 16 17 15 6 27
17 27 25 0 8 8 20 18 25 16 10 15 10 -3 12 -44 2 -101 -3 -118 -13 -16 -8 -17
-7 -6 10 15 23 61 52 83 52 24 0 19 15 -9 28 -14 6 -25 18 -25 26 0 7 -11 17
-25 20 -14 4 -25 13 -25 22 0 8 -13 23 -30 32 -16 9 -30 22 -30 28 0 6 -12 16
-26 22 -14 7 -22 16 -19 22 3 5 -6 17 -20 26 -14 9 -25 22 -25 29 0 8 -9 17
-20 20 -11 3 -20 12 -20 19 0 27 -22 34 -43 13 -18 -18 -19 -21 -4 -32 10 -7
17 -20 17 -29 0 -9 5 -16 10 -16 6 0 10 -5 10 -10 0 -6 -11 -3 -24 7 -13 10
-24 20 -24 23 1 20 -4 30 -14 28 -7 -2 -14 7 -16 20 -2 12 -12 27 -23 32 -10
6 -19 15 -19 21 0 5 -11 27 -25 47 -14 21 -25 30 -25 21 0 -23 29 -89 38 -89
11 0 12 -39 1 -45 -5 -4 -10 1 -10 9 -3 33 -4 37 -17 45 -13 8 -59 91 -126
228 -38 78 -111 282 -104 289 3 2 24 -34 48 -81 24 -46 45 -83 47 -82 3 4 -33
100 -47 125 -15 28 -71 201 -72 225 -1 12 -6 27 -11 34 -9 13 -2 33 13 33 6 0
16 -16 24 -35 12 -28 20 -34 38 -32 18 3 30 -6 54 -43 31 -46 37 -54 94 -120
17 -19 48 -54 68 -77 45 -54 152 -163 159 -163 5 0 53 -44 90 -82 15 -16 32
-28 39 -28 7 0 14 -5 16 -12 5 -14 38 -4 38 12 0 5 -7 10 -15 10 -8 0 -15 7
-15 15 0 8 -11 22 -25 31 -13 9 -27 24 -30 35 -4 10 -13 19 -21 19 -8 0 -14 6
-14 13 0 8 -9 22 -20 32 -11 10 -20 22 -20 27 0 6 -9 21 -20 35 -11 14 -20 30
-20 35 0 5 9 4 20 -2 11 -6 20 -17 20 -25 0 -8 3 -14 8 -13 14 4 52 -13 47
-21 -2 -5 11 -17 30 -27 19 -10 35 -22 35 -26 0 -3 9 -10 21 -13 11 -4 36 -20
55 -37 l35 -31 34 19 c37 20 45 34 20 34 -8 0 -15 7 -15 16 0 10 -16 36 -35
60 -19 23 -35 48 -35 55 0 6 -8 18 -17 25 -17 13 -17 13 0 14 9 0 17 -4 17 -9
0 -5 13 -11 30 -14 21 -5 28 -11 24 -22 -4 -9 0 -15 9 -15 8 0 36 -18 63 -39
51 -43 62 -45 81 -20 7 9 24 20 39 23 24 6 25 8 10 25 -9 10 -16 25 -16 34 0
8 -9 18 -19 22 -11 3 -18 12 -15 19 3 7 -2 21 -11 30 -9 9 -14 24 -11 32 4 11
-1 18 -14 21 -11 3 -20 10 -20 15 0 5 5 6 10 3 6 -3 10 4 10 16 0 12 3 19 7
15 4 -4 8 -15 8 -24 0 -9 6 -16 13 -14 8 1 11 -2 7 -8 -3 -5 3 -10 14 -10 14
0 21 -6 21 -20 0 -12 9 -24 20 -28 11 -4 29 -23 39 -42 14 -27 24 -34 42 -32
32 5 34 8 15 27 -9 9 -16 22 -16 30 0 7 -7 15 -15 19 -8 3 -15 13 -15 21 0 9
-7 23 -16 32 -8 9 -13 22 -10 29 3 8 -4 18 -14 24 -11 6 -20 17 -20 25 0 33
24 23 74 -29 29 -31 58 -56 64 -56 7 0 11 -3 11 -7 -3 -21 3 -31 27 -42 21 -9
29 -9 41 1 9 7 34 20 57 29 44 18 51 35 30 79 -11 21 -22 49 -29 70 -1 3 -5
19 -9 35 -4 17 -11 38 -17 47 -5 10 -9 26 -8 35 0 14 2 13 9 -5 5 -12 21 -27
35 -34 19 -8 24 -16 19 -31 -4 -12 -2 -17 4 -13 10 6 72 -59 72 -76 0 -4 5 -8
11 -8 6 0 2 15 -9 33 -34 55 -71 127 -65 127 4 0 -2 9 -11 19 -10 11 -15 25
-11 30 3 6 0 11 -7 11 -10 0 -10 2 1 9 9 6 21 5 33 -2 17 -11 17 -12 0 -19 -9
-4 -11 -7 -4 -7 7 -1 10 -6 7 -12 -4 -6 0 -9 11 -7 11 2 23 -6 30 -21 7 -13
20 -28 28 -33 9 -5 14 -13 11 -18 -3 -5 6 -17 20 -28 14 -11 25 -24 25 -29 0
-16 58 -53 85 -53 25 0 34 14 15 25 -5 3 -10 14 -10 24 0 10 -7 24 -15 31 -8
7 -15 21 -15 31 0 11 -4 19 -9 19 -4 0 -11 21 -15 46 -3 26 -11 53 -18 61 -7
9 -8 17 -2 23 11 11 42 -9 83 -52 14 -16 30 -28 35 -28 5 0 18 -9 30 -20 65
-61 86 -80 91 -80 3 0 18 -13 34 -29 26 -27 84 -50 164 -66 15 -3 27 -10 27
-16 0 -7 -11 -8 -30 -4 -22 5 -30 3 -30 -8 0 -13 23 -28 63 -41 10 -3 16 -10
13 -14 -3 -5 10 -15 30 -22 19 -8 41 -24 49 -37 9 -13 24 -23 35 -23 11 0 20
-5 20 -10 0 -6 22 -32 48 -58 27 -26 51 -55 55 -64 3 -10 11 -18 17 -18 17 0
45 -30 28 -30 -8 -1 -6 -6 6 -15 11 -8 25 -15 30 -14 6 0 5 3 -1 6 -8 3 -11
14 -7 29 4 15 2 24 -5 24 -7 0 -9 9 -5 24 4 16 1 25 -11 30 -14 5 -15 9 -4 22
10 13 10 17 -1 24 -7 4 -10 15 -7 23 3 9 0 21 -8 27 -8 6 -12 17 -9 24 3 8 -2
20 -10 29 -8 8 -13 17 -10 20 5 5 -29 118 -43 140 -4 6 -8 17 -9 22 -5 22 -38
112 -51 138 -8 15 -11 32 -7 39 4 6 3 8 -3 5 -11 -7 -36 42 -37 71 -1 8 -9 19
-18 26 -11 8 -15 20 -12 34 7 26 32 18 45 -14 4 -13 15 -24 24 -24 9 0 15 -9
15 -22 0 -12 3 -18 6 -15 7 7 64 -66 64 -82 0 -5 7 -14 15 -21 17 -14 -15 58
-53 120 -11 19 -20 38 -19 41 1 4 -5 15 -14 25 -15 17 -22 31 -29 59 -2 6 -10
15 -19 22 -9 6 -13 14 -10 18 8 7 163 -148 196 -197 14 -21 30 -38 34 -38 5 0
9 -6 9 -12 0 -7 11 -35 25 -62 14 -27 25 -58 25 -68 0 -10 5 -18 10 -18 6 0
10 -9 10 -19 0 -11 7 -26 15 -35 8 -8 12 -22 9 -30 -3 -9 -1 -16 5 -16 6 0 11
-14 11 -31 0 -16 4 -28 9 -24 6 3 14 -3 20 -12 7 -13 10 8 8 75 -1 50 -4 92
-7 92 -4 0 -5 12 -3 28 3 15 -3 81 -13 147 -9 66 -17 135 -17 153 0 17 -3 32
-6 32 -3 0 -7 16 -8 35 -1 32 0 34 18 25 10 -6 19 -7 19 -3 0 16 37 -35 58
-80 34 -73 53 -129 73 -225 10 -46 13 -50 24 -35 9 13 12 59 11 161 -1 78 1
142 4 142 7 0 57 -54 110 -117 24 -29 25 -29 65 -15 22 8 53 16 69 17 17 1 31
6 33 11 2 5 -15 47 -37 93 -22 45 -40 85 -40 89 0 3 18 -24 40 -61 22 -36 40
-68 40 -71 0 -3 8 -15 18 -26 9 -11 15 -23 12 -26 -3 -2 0 -8 5 -12 12 -9 45
-77 75 -157 37 -101 38 -103 33 -55 -11 115 -80 381 -102 400 -10 9 -52 90
-46 90 3 0 20 -24 39 -52 18 -29 43 -62 55 -72 11 -11 21 -25 21 -33 0 -7 5
-13 10 -13 6 0 18 -16 27 -35 9 -19 20 -35 24 -35 4 0 10 -11 13 -25 4 -14 11
-25 16 -25 6 0 10 -7 10 -17 0 -9 11 -39 24 -67 50 -107 65 -143 86 -208 12
-38 25 -70 30 -73 4 -3 6 -13 4 -23 -6 -25 11 -46 31 -39 9 4 13 12 10 17 -4
6 -8 37 -10 68 -10 158 -63 403 -106 484 -7 14 -6 16 6 12 8 -4 15 -11 15 -18
0 -6 16 -35 35 -65 19 -29 35 -54 35 -57 0 -2 14 -34 32 -71 17 -38 32 -70 33
-73 1 -3 4 -12 8 -20 5 -14 18 -62 48 -180 7 -25 14 -52 16 -60 3 -8 7 -31 9
-50 1 -19 5 -46 7 -60 2 -14 5 -34 5 -44 2 -14 5 -17 12 -10 6 6 13 97 16 215
5 212 -2 307 -36 454 -39 169 -42 186 -37 191 3 3 8 -5 12 -17 4 -12 17 -32
29 -43 11 -12 29 -37 39 -56 26 -48 48 -90 62 -120 26 -51 61 -212 64 -294 2
-44 9 -28 21 49 15 87 15 499 1 563 -27 126 -34 163 -29 167 3 3 18 -24 33
-59 16 -36 33 -62 38 -59 6 4 8 -1 4 -11 -4 -10 -1 -30 7 -44 63 -117 135
-378 152 -547 3 -33 8 -62 11 -65 8 -7 -8 198 -18 250 -6 25 -10 52 -10 60 -1
8 -6 33 -11 55 -6 22 -12 51 -14 65 -7 36 -65 221 -78 245 -6 11 -11 22 -11
25 -7 43 -69 181 -98 219 -6 7 -12 20 -14 29 -1 9 -7 18 -12 20 -6 2 -11 10
-11 17 0 15 -83 130 -117 162 -12 12 -23 25 -23 29 0 4 -35 42 -77 85 l-77 79
-320 0 c-302 -1 -319 -2 -291 -17 37 -20 135 -92 135 -99 0 -6 -31 10 -84 46
-24 17 -47 30 -51 30 -4 0 -20 9 -35 20 -27 19 -41 20 -372 18 -272 -2 -338
-5 -317 -15 41 -18 137 -81 145 -95 6 -10 5 -10 -7 -1 -8 6 -56 34 -108 62
l-94 51 -271 -1 -271 -1 90 -17 c91 -18 175 -44 204 -62 19 -12 14 -11 -94 20
-38 12 -125 30 -192 41 -112 18 -169 20 -641 20 -291 0 -522 -4 -527 -9z
m1521 -97 c19 -15 19 -15 -1 -6 -11 5 -27 12 -35 15 -13 5 -13 6 1 6 8 1 24
-6 35 -15z m455 -51 c13 -17 13 -17 -6 -3 -11 8 -22 16 -24 17 -2 2 0 3 6 3 6
0 17 -8 24 -17z m-91 -883 c0 -5 -2 -10 -4 -10 -3 0 -8 5 -11 10 -3 6 -1 10 4
10 6 0 11 -4 11 -10z m-710 -150 c0 -5 -5 -10 -11 -10 -5 0 -7 5 -4 10 3 6 8
10 11 10 2 0 4 -4 4 -10z m-1200 -90 c0 -5 -2 -10 -4 -10 -3 0 -8 5 -11 10 -3
6 -1 10 4 10 6 0 11 -4 11 -10z m-403 -32 c-3 -8 -6 -5 -6 6 -1 11 2 17 5 13
3 -3 4 -12 1 -19z m1233 -160 c0 -5 -7 -3 -15 6 -8 8 -15 18 -15 22 0 3 7 1
15 -6 8 -7 15 -17 15 -22z m-1140 -112 c0 -3 -4 -8 -10 -11 -5 -3 -10 -1 -10
4 0 6 5 11 10 11 6 0 10 -2 10 -4z m-133 -188 c-3 -7 -5 -2 -5 12 0 14 2 19 5
13 2 -7 2 -19 0 -25z m2274 -276 c-16 -5 -41 5 -41 17 0 7 10 6 26 -1 15 -7
21 -14 15 -16z m-104 -198 c-3 -3 -12 -4 -19 -1 -8 3 -5 6 6 6 11 1 17 -2 13
-5z m-167 -104 c0 -5 -5 -10 -11 -10 -5 0 -7 5 -4 10 3 6 8 10 11 10 2 0 4 -4
4 -10z m-180 -280 c-8 -5 -37 -10 -65 -10 -36 0 -46 3 -35 10 8 5 38 10 65 10
36 0 46 -3 35 -10z m-125 -50 c-22 -5 -44 -4 -49 1 -6 5 10 9 40 8 l49 -1 -40
-8z m-95 -30 c0 -13 -20 -13 -40 0 -12 8 -9 10 13 10 15 0 27 -4 27 -10z
m-1460 -154 c-17 -53 -28 -101 -24 -108 4 -6 3 -8 -2 -5 -6 3 -30 -45 -54
-106 -50 -127 -48 -122 -56 -114 -7 6 1 30 36 112 10 22 34 85 55 140 21 55
41 109 46 120 4 11 11 30 14 43 4 13 9 21 11 19 3 -2 -9 -48 -26 -101z m1583
-581 c-6 -17 -19 -19 -28 -5 -3 6 1 10 10 10 10 0 13 5 9 12 -4 7 -3 8 4 4 6
-4 9 -13 5 -21z m-138 -35 c3 -5 1 -10 -5 -10 -6 0 -8 -4 -5 -10 3 -5 -1 -10
-9 -10 -18 0 -19 2 -10 24 7 18 20 21 29 6z m175 0 c0 -5 -4 -10 -10 -10 -5 0
-10 5 -10 10 0 6 5 10 10 10 6 0 10 -4 10 -10z m-8 -23 c7 -7 21 -16 32 -20
15 -6 16 -10 6 -22 -15 -18 -34 -20 -24 -3 4 6 -5 21 -22 35 -16 12 -24 23
-17 23 6 0 18 -6 25 -13z m-132 -27 c0 -5 -9 -10 -20 -10 -11 0 -20 5 -20 10
0 6 9 10 20 10 11 0 20 -4 20 -10z m200 -56 c0 -2 -7 -4 -15 -4 -8 0 -15 4
-15 10 0 5 7 7 15 4 8 -4 15 -8 15 -10z m7 -31 c16 -10 28 -27 28 -38 0 -11 5
-19 11 -18 6 1 12 -9 12 -22 0 -15 -6 -25 -15 -25 -7 0 -13 6 -12 13 3 26 -2
35 -22 40 -12 3 -18 10 -14 17 4 6 -1 20 -11 31 -21 24 -13 24 23 2z m79 -128
c-3 -9 2 -20 13 -27 11 -6 16 -19 14 -29 -3 -11 -9 -16 -14 -13 -5 3 -7 9 -4
14 3 5 -6 16 -19 25 -20 14 -23 19 -13 30 16 19 31 19 23 0z m1680 -243 c-17
-16 -18 -16 -5 5 7 12 15 20 18 17 3 -2 -3 -12 -13 -22z m-2089 -58 c-3 -3
-12 -4 -19 -1 -8 3 -5 6 6 6 11 1 17 -2 13 -5z m1810 -124 c-1 -12 -5 -16 -10
-11 -5 5 -6 14 -3 20 11 16 15 13 13 -9z m-47 0 c13 -8 12 -10 -2 -10 -10 0
-18 -4 -18 -8 0 -5 -7 -9 -14 -9 -11 0 -13 5 -5 19 11 20 18 22 39 8z m-1390
-30 c0 -5 -7 -10 -15 -10 -8 0 -15 5 -15 10 0 6 7 10 15 10 8 0 15 -4 15 -10z
m1386 -25 c-5 -14 -11 -14 -53 1 -16 6 -16 7 2 14 11 4 26 3 33 -3 7 -6 12 -6
11 -1 -3 17 3 29 8 16 3 -7 2 -19 -1 -27z m54 3 c0 -10 5 -18 11 -18 6 0 3 -7
-6 -16 -9 -9 -19 -13 -23 -9 -4 4 -2 10 5 12 7 2 9 11 6 19 -5 13 -7 13 -14 2
-6 -9 -9 -7 -9 8 0 12 6 21 15 21 8 0 15 -9 15 -19z m-33 -50 c-3 -8 -6 -5 -6
6 -1 11 2 17 5 13 3 -3 4 -12 1 -19z m180 -10 c-3 -8 -6 -5 -6 6 -1 11 2 17 5
13 3 -3 4 -12 1 -19z m-1502 -18 c3 -6 -1 -7 -9 -4 -18 7 -21 14 -7 14 6 0 13
-4 16 -10z m53 -59 c3 -8 -1 -12 -9 -9 -7 2 -15 10 -17 17 -3 8 1 12 9 9 7 -2
15 -10 17 -17z m491 -255 c-3 -3 -11 5 -18 17 -13 21 -12 21 5 5 10 -10 16
-20 13 -22z m222 -151 l10 -20 -16 20 c-9 11 -21 29 -26 40 l-10 20 16 -20 c9
-11 21 -29 26 -40z m336 -17 c-3 -8 -6 -5 -6 6 -1 11 2 17 5 13 3 -3 4 -12 1
-19z m-272 -75 c27 -38 52 -70 55 -73 3 -3 12 -14 20 -24 14 -18 14 -19 -6 -8
-30 16 -141 172 -122 172 2 0 26 -30 53 -67z m-445 -280 c0 -25 -2 -44 -4 -42
-8 10 -13 89 -5 89 5 0 9 -21 9 -47z m7 -85 c-3 -7 -5 -2 -5 12 0 14 2 19 5
13 2 -7 2 -19 0 -25z"/>
<path d="M3151 4214 c-18 -8 -31 -17 -29 -19 5 -5 98 24 98 31 0 8 -36 2 -69
-12z"/>
<path d="M3193 4195 c-29 -13 -53 -28 -53 -33 0 -5 9 -17 20 -27 11 -10 20
-23 20 -30 0 -6 6 -17 13 -23 6 -7 12 -16 12 -20 0 -4 10 -27 22 -52 11 -25
29 -65 39 -89 l19 -44 6 84 c4 63 0 106 -14 172 -11 48 -22 87 -26 86 -3 0
-30 -11 -58 -24z"/>
<path d="M4040 4168 c0 -13 14 -50 30 -83 l30 -60 -5 45 c-3 24 -12 52 -20 61
-8 8 -15 23 -15 32 0 9 -4 19 -10 22 -6 3 -10 -4 -10 -17z"/>
<path d="M2871 4084 c0 -11 3 -14 6 -6 3 7 2 16 -1 19 -3 4 -6 -2 -5 -13z"/>
<path d="M3036 4092 c-7 -11 -4 -122 3 -118 3 2 6 -16 6 -40 0 -24 1 -44 3
-44 2 0 19 17 38 37 l35 36 -32 64 c-32 65 -44 79 -53 65z"/>
<path d="M4027 4074 c-3 -5 14 -55 36 -112 23 -56 44 -97 45 -92 2 6 -4 27
-13 46 -9 20 -27 65 -40 101 -12 36 -25 61 -28 57z"/>
<path d="M4231 4009 c-49 -59 -52 -103 -12 -173 18 -31 36 -58 42 -61 18 -11
9 36 -14 73 -27 45 -49 93 -44 98 2 2 16 -21 31 -51 14 -30 31 -55 36 -55 6 0
10 44 10 105 0 58 -3 105 -7 105 -5 0 -23 -19 -42 -41z"/>
<path d="M2956 4012 c-3 -5 -1 -22 4 -38 8 -29 8 -29 9 9 1 36 -3 45 -13 29z"/>
<path d="M4003 3963 c-10 -56 -10 -59 27 -128 21 -39 47 -86 59 -105 l21 -35
0 55 c0 56 -36 164 -52 154 -4 -3 -5 1 -2 9 4 12 -30 107 -39 107 -2 0 -8 -26
-14 -57z"/>
<path d="M4085 3990 c4 -14 11 -32 16 -40 7 -12 8 -11 8 5 0 11 -7 29 -15 40
-16 19 -16 19 -9 -5z"/>
<path d="M2897 3973 c-4 -3 -7 -16 -6 -27 0 -19 1 -19 10 3 10 24 8 36 -4 24z"/>
<path d="M3088 3907 c-35 -30 -48 -58 -48 -105 0 -21 -3 -42 -7 -45 -4 -4 -8
-31 -10 -60 -2 -28 0 -47 5 -41 4 6 23 19 42 28 l35 17 -42 -39 c-26 -24 -39
-43 -34 -50 5 -9 15 -5 35 13 15 14 30 25 35 25 4 0 16 8 27 18 10 9 31 22 45
29 22 9 26 17 23 43 -5 41 -11 50 -29 43 -10 -3 -15 1 -15 15 0 12 -4 23 -9
26 -10 6 -26 73 -22 94 3 16 0 16 -31 -11z"/>
<path d="M3950 3778 c-19 -62 -34 -122 -32 -132 1 -11 -1 -17 -4 -13 -4 4 -20
-19 -36 -50 -24 -48 -26 -59 -15 -72 8 -9 20 -32 27 -51 7 -19 17 -39 22 -44
4 -6 8 -20 8 -33 0 -13 5 -23 10 -23 6 0 10 -5 10 -10 0 -6 7 -27 15 -47 l16
-37 23 35 c13 19 22 37 19 42 -2 4 1 7 6 7 15 0 13 40 -4 70 -8 14 -14 34 -14
45 0 12 7 4 19 -22 11 -24 21 -43 24 -43 7 0 44 121 57 188 13 70 12 72 -50
172 -19 30 -41 72 -50 93 l-16 38 -35 -113z"/>
<path d="M1930 3870 c0 -5 14 -10 30 -10 17 0 30 5 30 10 0 6 -13 10 -30 10
-16 0 -30 -4 -30 -10z"/>
<path d="M2907 3863 c-2 -10 -4 -38 -3 -63 1 -25 -1 -47 -5 -50 -4 -3 -1 -16
6 -30 11 -19 14 -21 15 -7 0 9 5 17 11 17 5 0 8 4 4 9 -3 5 2 17 11 25 8 9 11
16 6 16 -6 0 -8 9 -5 20 3 11 1 20 -5 20 -6 0 -10 12 -9 26 2 31 -19 44 -26
17z"/>
<path d="M3147 3859 c4 -13 8 -18 11 -10 2 7 -1 18 -6 23 -8 8 -9 4 -5 -13z"/>
<path d="M4182 3844 c3 -3 2 -21 -2 -41 -7 -30 -2 -47 38 -126 l47 -92 3 73
c2 57 -1 77 -15 97 -10 13 -24 25 -31 25 -7 0 -11 4 -7 9 7 12 -15 61 -28 61
-6 0 -8 -2 -5 -6z"/>
<path d="M1965 3824 c11 -8 19 -20 17 -25 -1 -5 9 -14 22 -20 13 -6 27 -20 29
-30 6 -23 23 -25 31 -4 4 10 -3 20 -20 27 -14 6 -23 17 -20 25 6 16 -31 43
-59 43 -20 -1 -20 -1 0 -16z"/>
<path d="M3626 3782 c-7 -11 5 -122 13 -122 4 0 8 29 9 65 3 58 -6 82 -22 57z"/>
<path d="M3836 3692 c-18 -96 -16 -135 4 -102 10 17 23 145 18 180 -1 14 -12
-21 -22 -78z"/>
<path d="M1720 3770 c0 -5 -3 -9 -7 -8 -11 2 -93 -22 -93 -28 0 -9 69 -74 80
-74 5 0 10 -7 10 -15 0 -9 11 -21 25 -27 14 -6 25 -16 25 -23 0 -6 15 -18 33
-26 17 -8 32 -20 32 -27 0 -13 48 -42 71 -42 18 0 18 16 0 23 -9 4 -12 14 -9
25 3 14 -2 21 -17 25 -15 4 -21 11 -17 21 4 9 -1 17 -14 21 -14 5 -19 13 -16
24 2 10 -4 23 -14 30 -11 6 -19 20 -19 30 0 10 -7 22 -15 25 -9 3 -15 11 -14
18 3 28 -2 38 -21 38 -11 0 -20 -4 -20 -10z"/>
<path d="M2937 3709 c-9 -17 -17 -37 -17 -44 0 -8 -8 -19 -17 -24 -16 -9 -16
-12 -3 -20 11 -8 12 -13 3 -22 -17 -17 4 -62 22 -46 7 7 11 15 9 18 -2 3 8 12
21 19 25 14 33 30 15 30 -5 0 -10 7 -10 15 0 8 5 15 11 15 8 0 8 4 2 13 -15
19 -24 49 -13 42 12 -7 13 5 2 22 -5 8 -13 2 -25 -18z"/>
<path d="M4157 3693 c-4 -3 -7 -21 -7 -39 0 -28 9 -53 41 -114 5 -8 23 -44 41
-80 l33 -65 3 58 c2 44 -2 66 -17 90 -11 18 -33 60 -51 95 -32 65 -33 66 -43
55z"/>
<path d="M1500 3670 c0 -5 5 -10 10 -10 6 0 10 -7 10 -15 0 -9 11 -21 25 -27
16 -7 24 -17 20 -26 -3 -8 3 -16 16 -19 11 -3 25 -16 30 -29 11 -29 29 -31 29
-4 0 13 -10 24 -25 30 -17 6 -23 15 -20 30 2 11 -1 20 -6 20 -13 0 -44 30 -32
30 13 1 -30 30 -44 30 -7 0 -13 -4 -13 -10z"/>
<path d="M3781 3644 c0 -11 3 -14 6 -6 3 7 2 16 -1 19 -3 4 -6 -2 -5 -13z"/>
<path d="M3641 3634 c0 -11 3 -14 6 -6 3 7 2 16 -1 19 -3 4 -6 -2 -5 -13z"/>
<path d="M1400 3622 c0 -5 -15 -15 -32 -24 l-32 -15 24 -13 c14 -7 29 -19 33
-26 4 -7 23 -21 42 -30 19 -9 33 -20 30 -24 -3 -4 9 -13 26 -20 16 -7 34 -21
40 -31 12 -23 25 -24 33 -3 4 11 -1 18 -14 21 -11 3 -20 8 -21 12 -3 30 -10
45 -21 52 -7 5 -13 14 -13 21 0 7 -10 17 -22 23 -13 5 -23 17 -23 25 0 9 -5
21 -12 28 -14 14 -38 16 -38 4z"/>
<path d="M4096 3492 c-36 -116 -37 -152 -2 -191 23 -26 64 -171 75 -267 10
-82 8 -330 -3 -416 -9 -72 -25 -138 -62 -250 -9 -26 -12 -53 -8 -59 4 -8 3 -9
-4 -5 -8 5 -12 0 -12 -13 0 -10 -3 -21 -7 -23 -10 -4 -85 -150 -80 -154 2 -2
22 28 44 67 31 53 41 64 40 45 -1 -14 -5 -26 -9 -26 -8 0 -23 -60 -19 -79 1
-8 -3 -17 -9 -21 -6 -4 -12 -18 -13 -31 -2 -20 -57 -144 -108 -241 -5 -10 -9
-21 -9 -25 0 -11 56 52 63 71 4 9 11 16 17 16 5 0 10 7 10 15 0 8 5 15 10 15
6 0 14 8 18 19 4 10 17 31 29 47 48 61 89 120 102 147 8 15 18 27 23 27 4 0 8
6 8 14 0 7 7 19 15 26 8 6 26 32 40 57 20 37 25 59 24 112 l-1 66 -16 -47 c-9
-26 -24 -53 -32 -60 -12 -11 -12 -11 -3 2 16 21 56 214 50 242 -3 17 -5 14 -6
-12 -1 -19 -6 -43 -10 -53 -4 -11 -8 79 -9 198 -1 120 -7 238 -13 264 -6 25
-12 69 -15 96 -4 51 -22 147 -32 175 -7 20 -8 27 -17 75 -6 37 -6 38 7 20 8
-11 21 -41 28 -67 7 -27 17 -48 21 -48 5 0 9 -9 9 -21 0 -11 8 -44 18 -72 l17
-52 3 117 c2 105 0 121 -22 170 -13 29 -36 83 -51 119 -15 37 -35 79 -45 94
l-18 28 -36 -111z"/>
<path d="M2946 3540 c-10 -10 -16 -25 -13 -32 4 -9 6 -8 6 4 1 9 10 20 21 23
11 3 20 11 20 16 0 14 -13 10 -34 -11z"/>
<path d="M1235 3524 c-9 -9 -14 -23 -11 -31 3 -8 6 -17 6 -19 0 -2 6 -4 14 -4
8 0 27 -10 43 -23 15 -12 40 -28 56 -35 15 -6 27 -16 27 -22 0 -5 7 -10 15
-10 24 0 18 19 -10 32 -14 6 -25 17 -25 24 0 7 -11 21 -25 32 -14 11 -25 24
-25 30 0 5 -11 17 -24 26 -23 14 -26 14 -41 0z"/>
<path d="M1650 3516 c0 -2 7 -9 15 -16 13 -11 14 -10 9 4 -5 14 -24 23 -24 12z"/>
<path d="M2480 3440 c-8 -5 -13 -10 -10 -11 3 0 13 -2 22 -4 11 -2 15 2 11 11
-6 16 -4 16 -23 4z"/>
<path d="M1101 3427 c2 -2 18 -11 34 -21 l30 -17 -24 20 c-13 12 -28 21 -34
21 -6 0 -8 -1 -6 -3z"/>
<path d="M1444 3393 c3 -18 50 -51 74 -52 24 -2 2 17 -28 24 -17 4 -30 13 -30
20 0 8 -4 16 -9 19 -5 4 -8 -2 -7 -11z"/>
<path d="M1809 3388 c5 -13 17 -25 27 -26 18 -4 18 -3 -1 12 -15 12 -16 15 -5
16 13 0 13 1 0 10 -24 15 -30 12 -21 -12z"/>
<path d="M780 3385 c0 -5 36 -89 49 -115 5 -8 15 -16 22 -18 24 -4 17 41 -8
61 -13 10 -23 23 -23 28 0 5 -9 18 -20 29 -11 11 -20 18 -20 15z"/>
<path d="M1710 3347 c0 -16 20 -37 35 -37 5 0 2 5 -9 11 -13 8 -15 13 -6 19 8
5 7 9 -4 13 -9 4 -16 1 -16 -6z"/>
<path d="M1863 3341 c-1 -14 8 -23 33 -31 27 -9 32 -15 24 -25 -12 -14 6 -25
41 -25 10 0 19 -4 19 -10 0 -13 40 -13 60 0 12 8 9 10 -13 10 -17 0 -37 10
-51 25 -13 14 -30 25 -37 25 -19 1 -55 29 -49 38 3 4 -2 8 -10 10 -10 1 -16
-5 -17 -17z"/>
<path d="M4007 3295 l-28 -44 25 -63 c13 -35 30 -80 37 -100 7 -20 16 -35 21
-32 4 3 5 -1 2 -9 -2 -7 4 -45 15 -83 11 -38 20 -60 20 -49 2 51 -21 240 -30
252 -6 6 -8 17 -4 22 6 11 -13 131 -24 143 -3 3 -19 -13 -34 -37z"/>
<path d="M1520 3322 c0 -5 9 -12 20 -15 11 -3 20 -12 20 -21 0 -9 13 -19 33
-24 22 -6 32 -14 32 -28 0 -13 8 -20 25 -22 14 -2 30 -10 37 -19 9 -12 22 -14
57 -9 53 8 71 26 27 26 -17 0 -38 9 -49 20 -10 11 -39 26 -63 34 -24 7 -43 18
-42 24 2 6 -12 15 -30 20 -17 6 -40 13 -49 17 -10 4 -18 3 -18 -3z"/>
<path d="M1284 3288 c0 -11 9 -21 23 -24 12 -3 25 -15 28 -25 7 -22 14 -23 38
-5 22 17 22 26 -3 26 -11 0 -30 10 -42 22 -29 29 -44 31 -44 6z"/>
<path d="M1767 3293 c7 -20 22 -33 38 -33 6 1 1 7 -10 16 -11 8 -19 17 -19 19
1 3 -2 8 -7 11 -5 3 -6 -3 -2 -13z"/>
<path d="M3787 3135 c3 -77 9 -145 13 -150 5 -6 11 -52 14 -102 5 -82 25 -189
43 -233 4 -8 8 -28 10 -43 4 -34 61 -208 74 -223 5 -6 7 -13 4 -16 -3 -3 1
-17 9 -32 23 -46 27 -12 5 50 -22 63 -27 81 -28 102 -1 7 -5 10 -11 7 -6 -4
-7 1 -3 11 4 11 -1 22 -12 30 -10 8 -13 14 -7 14 16 0 15 25 -2 42 -7 8 -13
22 -12 33 1 28 -47 269 -55 275 -4 3 -7 24 -7 48 -1 24 -6 49 -11 56 -6 7 -9
15 -6 17 2 3 -2 61 -10 130 l-14 124 6 -140z"/>
<path d="M1837 3240 c3 -11 12 -20 19 -20 19 0 18 26 -2 34 -22 9 -23 8 -17
-14z"/>
<path d="M1399 3223 c-1 -5 0 -16 1 -27 1 -12 -2 -16 -11 -11 -8 5 -10 4 -5
-4 4 -6 23 -18 42 -26 23 -9 33 -19 28 -26 -5 -9 9 -10 57 -5 88 10 102 20 47
34 -24 6 -55 20 -68 32 -13 11 -31 20 -41 20 -10 0 -21 5 -24 10 -7 12 -24 13
-26 3z"/>
<path d="M2010 3220 c-12 -8 -10 -10 8 -10 13 0 31 -4 40 -8 9 -5 31 -5 47 -1
30 7 30 7 3 8 -15 0 -30 6 -33 11 -8 13 -45 13 -65 0z"/>
<path d="M1207 3188 c-8 -28 4 -47 14 -22 11 27 11 44 0 44 -5 0 -11 -10 -14
-22z"/>
<path d="M1915 3190 c3 -5 16 -10 28 -10 18 0 19 2 7 10 -20 13 -43 13 -35 0z"/>
<path d="M1253 3158 c0 -13 1 -17 4 -10 7 18 20 15 26 -8 3 -11 1 -20 -4 -20
-5 0 -10 -10 -10 -22 -1 -17 -2 -19 -6 -5 -2 9 -11 17 -19 17 -8 0 -14 5 -14
11 0 5 4 8 9 5 5 -4 7 4 3 16 -5 21 -5 21 -14 -2 -7 -18 -5 -27 7 -36 11 -9
13 -13 4 -16 -8 -3 -10 -11 -6 -22 4 -9 11 -14 17 -11 5 3 10 -1 10 -9 0 -9
-5 -16 -11 -16 -5 0 -7 -5 -3 -11 4 -8 12 -3 21 12 11 19 13 20 9 4 -10 -38 6
-45 53 -24 24 10 53 19 66 19 12 0 32 9 45 20 13 11 35 23 49 26 49 11 46 14
-9 8 -49 -5 -53 -4 -36 9 18 13 18 14 -9 21 -15 4 -34 14 -42 21 -15 16 -45
20 -57 8 -13 -13 -35 -11 -30 2 3 8 -4 18 -15 24 -29 16 -37 14 -38 -11z"/>
<path d="M1750 3171 l-35 -6 41 -14 c33 -10 46 -11 64 -1 18 10 20 14 9 21
-15 9 -26 10 -79 0z"/>
<path d="M2018 3143 c6 -2 18 -2 25 0 6 3 1 5 -13 5 -14 0 -19 -2 -12 -5z"/>
<path d="M1100 3130 c0 -5 5 -10 11 -10 5 0 7 5 4 10 -3 6 -8 10 -11 10 -2 0
-4 -4 -4 -10z"/>
<path d="M1570 3124 c-8 -3 -22 -8 -30 -11 -11 -4 -9 -7 9 -14 30 -12 84 -2
78 14 -4 13 -34 19 -57 11z"/>
<path d="M1131 3094 c6 -8 9 -17 6 -20 -3 -3 3 -14 14 -25 11 -11 17 -23 15
-28 -3 -4 6 -13 19 -19 16 -8 23 -17 19 -27 -5 -12 -2 -14 17 -7 28 11 37 32
14 32 -23 0 -49 27 -32 33 6 2 -3 12 -21 21 -20 10 -32 23 -29 31 3 7 -3 15
-14 18 -17 5 -18 3 -8 -9z"/>
<path d="M480 3074 c0 -22 21 -107 30 -119 4 -5 10 -22 14 -37 3 -16 10 -28
15 -28 5 0 7 -9 4 -20 -3 -12 0 -20 6 -20 7 0 10 -4 7 -8 -5 -8 29 -111 41
-122 2 -3 2 15 0 40 -2 24 -10 46 -16 48 -6 2 -9 7 -6 12 2 4 -9 46 -25 94
-17 47 -30 90 -30 95 0 5 -5 22 -12 38 -6 15 -11 31 -10 36 1 4 -2 7 -8 7 -5
0 -10 -7 -10 -16z"/>
<path d="M3672 3020 c0 -14 2 -19 5 -12 2 6 2 18 0 25 -3 6 -5 1 -5 -13z"/>
<path d="M15 2934 c3 -50 9 -102 14 -115 11 -26 6 48 -10 151 -7 45 -7 39 -4
-36z"/>
<path d="M3685 2910 c3 -5 8 -10 11 -10 2 0 4 5 4 10 0 6 -5 10 -11 10 -5 0
-7 -4 -4 -10z"/>
<path d="M3705 2836 c3 -27 5 -57 5 -68 0 -11 4 -16 11 -12 6 4 8 17 3 33 -4
14 -11 42 -15 61 -7 30 -8 28 -4 -14z"/>
<path d="M1325 2780 c3 -5 8 -10 11 -10 2 0 4 5 4 10 0 6 -5 10 -11 10 -5 0
-7 -4 -4 -10z"/>
<path d="M3731 2734 c0 -11 3 -14 6 -6 3 7 2 16 -1 19 -3 4 -6 -2 -5 -13z"/>
<path d="M619 2665 c9 -24 20 -47 24 -51 10 -11 9 23 -2 44 -5 9 -12 25 -15
35 -3 9 -10 17 -15 17 -5 0 -1 -20 8 -45z"/>
<path d="M3734 2678 c1 -13 6 -32 10 -43 4 -11 10 -27 13 -35 3 -8 5 -25 4
-37 -1 -13 2 -23 7 -23 5 0 9 -6 9 -12 -2 -25 15 -88 24 -88 5 0 9 -11 9 -24
0 -14 5 -28 10 -31 6 -3 10 -17 10 -31 0 -13 3 -24 8 -24 4 0 8 -10 8 -23 3
-38 52 -137 68 -137 10 0 16 9 16 22 0 27 -38 108 -51 108 -6 0 -7 4 -4 10 3
5 -3 28 -14 50 -11 23 -23 54 -26 71 -4 16 -11 27 -16 24 -5 -4 -6 1 -3 10 4
8 2 21 -4 28 -5 6 -15 36 -22 65 -6 28 -16 52 -22 52 -5 0 -7 4 -4 8 7 12 -13
82 -24 82 -5 0 -8 -10 -6 -22z"/>
<path d="M1365 2670 c-3 -5 -1 -10 4 -10 6 0 11 5 11 10 0 6 -2 10 -4 10 -3 0
-8 -4 -11 -10z"/>
<path d="M688 2650 c6 -8 12 -21 12 -30 0 -8 9 -23 20 -33 11 -9 20 -13 20 -8
0 5 -7 14 -15 21 -8 7 -13 16 -10 20 2 4 -5 16 -18 26 -12 10 -16 12 -9 4z"/>
<path d="M660 2585 c7 -9 15 -13 17 -11 7 7 -7 26 -19 26 -6 0 -6 -6 2 -15z"/>
<path d="M680 2532 c6 -13 14 -21 18 -18 3 4 -2 14 -12 24 -18 16 -18 16 -6
-6z"/>
<path d="M647 2523 c-11 -10 -8 -164 3 -204 14 -50 55 -90 129 -127 63 -31 93
-35 56 -8 -10 7 -15 18 -11 24 3 6 -2 17 -12 24 -10 7 -22 25 -26 41 -3 15
-13 27 -21 27 -8 0 -15 4 -15 8 0 5 -11 14 -24 22 -14 7 -25 20 -25 29 0 9 -2
35 -4 59 -5 46 6 63 22 35 16 -27 13 -9 -3 22 -12 23 -15 24 -18 8 -3 -14 -7
-11 -18 15 -15 32 -21 37 -33 25z"/>
<path d="M755 2509 c-4 -6 -4 -13 -1 -16 3 -4 6 0 6 8 0 11 2 11 10 -1 5 -8 7
-22 4 -32 -6 -21 12 -33 20 -12 3 8 -1 26 -10 40 -18 27 -20 28 -29 13z"/>
<path d="M803 2420 c1 -11 5 -20 9 -20 4 0 8 9 8 20 0 11 -4 20 -9 20 -6 0 -9
-9 -8 -20z"/>
<path d="M827 2372 c1 -8 3 -18 3 -23 0 -5 5 -9 10 -9 6 0 10 9 10 21 0 11 -4
18 -9 15 -5 -4 -11 -3 -14 1 -2 5 -2 2 0 -5z"/>
<path d="M860 2320 c0 -5 5 -10 11 -10 5 0 7 5 4 10 -3 6 -8 10 -11 10 -2 0
-4 -4 -4 -10z"/>
<path d="M4258 2165 c-4 -11 -18 -47 -33 -80 -32 -75 -112 -347 -120 -406 -3
-24 12 17 33 91 45 156 110 350 124 367 5 7 8 20 6 30 -3 16 -4 16 -10 -2z"/>
<path d="M955 2151 c-3 -5 -2 -12 3 -15 5 -3 9 1 9 9 0 17 -3 19 -12 6z"/>
<path d="M546 2107 c3 -10 9 -15 12 -12 3 3 0 11 -7 18 -10 9 -11 8 -5 -6z"/>
<path d="M4237 1960 c-15 -63 -34 -144 -42 -180 -24 -108 -45 -327 -43 -460
l1 -125 8 160 c9 206 37 367 95 547 9 27 14 72 12 110 l-3 63 -28 -115z"/>
<path d="M4163 1991 c-20 -26 -59 -178 -50 -188 3 -2 15 33 27 79 12 46 29 95
36 111 19 35 13 34 -13 -2z"/>
<path d="M595 2000 c-8 -13 -1 -24 14 -19 6 3 7 10 2 18 -6 10 -10 10 -16 1z"/>
<path d="M248 1898 c-3 -46 -4 -186 -3 -313 1 -215 3 -236 27 -315 14 -47 35
-128 47 -180 12 -52 26 -111 31 -130 5 -19 21 -93 35 -165 15 -71 29 -137 33
-145 3 -8 6 -23 7 -33 5 -45 27 -203 30 -217 2 -8 2 66 -1 165 -3 102 -10 185
-16 192 -6 7 -8 23 -5 34 5 19 -3 119 -18 219 -3 19 -10 73 -15 120 -5 47 -17
130 -25 185 -9 55 -18 120 -20 145 -3 25 -10 77 -17 115 -7 39 -12 76 -11 83
0 6 -2 12 -6 12 -3 0 -7 10 -8 23 -4 54 -48 287 -54 287 -4 0 -9 -37 -11 -82z"/>
<path d="M344 1942 c3 -19 12 -48 20 -65 7 -18 19 -51 25 -74 6 -23 18 -48 25
-56 8 -7 17 -32 21 -56 6 -34 10 -41 23 -36 13 5 14 3 6 -5 -12 -12 -7 -50 5
-50 4 0 8 -6 8 -14 0 -21 74 -166 85 -166 5 0 6 -4 3 -10 -3 -5 -1 -10 4 -10
6 0 11 -6 11 -13 0 -7 9 -19 20 -27 11 -8 20 -19 20 -25 0 -21 135 -215 149
-215 4 0 16 6 26 14 22 16 20 19 -85 143 -5 7 -10 17 -10 23 0 5 -4 10 -10 10
-5 0 -10 4 -10 10 0 5 -22 43 -50 84 -27 41 -50 79 -50 84 0 6 -4 12 -8 14 -5
2 -15 15 -23 30 -8 15 -32 62 -54 105 -22 43 -42 80 -46 83 -3 3 -18 34 -32
70 -14 36 -33 79 -41 95 -9 17 -16 37 -16 45 0 8 -5 22 -11 30 -8 11 -9 7 -5
-18z"/>
<path d="M640 1921 c0 -6 4 -13 10 -16 6 -3 7 1 4 9 -7 18 -14 21 -14 7z"/>
<path d="M4091 1870 c-1 -9 -10 -23 -21 -33 -11 -9 -20 -24 -20 -32 0 -8 -4
-15 -10 -15 -5 0 -12 -11 -16 -25 -3 -14 -10 -25 -15 -25 -5 0 -9 -4 -9 -9 0
-5 -15 -36 -34 -68 -19 -32 -47 -87 -62 -123 -14 -36 -33 -81 -42 -100 -9 -19
-16 -50 -16 -67 0 -18 -3 -33 -6 -33 -7 0 -33 -80 -28 -85 6 -7 58 8 58 16 0
5 8 9 19 9 30 0 81 21 75 31 -3 5 -2 8 3 7 4 -2 26 3 49 11 l41 13 8 117 c10
164 12 196 16 281 2 41 8 78 14 82 6 5 5 8 -4 8 -11 0 -11 3 -1 15 6 8 10 20
7 27 -4 9 -6 8 -6 -2z"/>
<path d="M670 1836 c0 -8 7 -16 15 -20 17 -6 18 -4 9 18 -8 20 -24 21 -24 2z"/>
<path d="M132 1778 c10 -55 14 -65 23 -56 3 3 1 17 -5 32 -5 15 -10 38 -10 52
0 13 -4 24 -9 24 -4 0 -4 -24 1 -52z"/>
<path d="M4160 1789 c0 -5 5 -7 10 -4 6 3 10 8 10 11 0 2 -4 4 -10 4 -5 0 -10
-5 -10 -11z"/>
<path d="M700 1780 c0 -5 5 -10 10 -10 6 0 10 5 10 10 0 6 -4 10 -10 10 -5 0
-10 -4 -10 -10z"/>
<path d="M730 1744 c0 -8 5 -12 10 -9 6 3 10 10 10 16 0 5 -4 9 -10 9 -5 0
-10 -7 -10 -16z"/>
<path d="M1325 1740 c3 -5 8 -10 11 -10 2 0 4 5 4 10 0 6 -5 10 -11 10 -5 0
-7 -4 -4 -10z"/>
<path d="M4155 1740 c-19 -31 -37 -142 -40 -255 -5 -155 10 -139 20 21 8 121
10 142 18 164 8 23 17 80 12 80 -2 0 -7 -4 -10 -10z"/>
<path d="M810 1623 c0 -4 5 -15 10 -23 8 -13 10 -13 10 2 0 9 -4 20 -10 23 -5
3 -10 3 -10 -2z"/>
<path d="M4093 1590 c0 -25 2 -35 4 -22 2 12 2 32 0 45 -2 12 -4 2 -4 -23z"/>
<path d="M830 1576 c0 -9 30 -14 35 -6 4 6 -3 10 -14 10 -12 0 -21 -2 -21 -4z"/>
<path d="M4083 1475 c0 -38 2 -53 4 -32 2 20 2 52 0 70 -2 17 -4 1 -4 -38z"/>
<path d="M935 1420 c-3 -5 -1 -10 4 -10 6 0 11 5 11 10 0 6 -2 10 -4 10 -3 0
-8 -4 -11 -10z"/>
<path d="M981 1411 c13 -11 26 -17 29 -14 6 6 -30 33 -43 33 -5 0 1 -9 14 -19z"/>
<path d="M4083 1345 c0 -22 2 -30 4 -17 2 12 2 30 0 40 -3 9 -5 -1 -4 -23z"/>
<path d="M60 1285 c-1 -49 -3 -101 -5 -115 -8 -105 -18 -206 -25 -270 -5 -41
-12 -95 -15 -120 -9 -78 -6 -451 4 -464 6 -7 6 -40 1 -86 -5 -41 -9 -110 -10
-152 0 -76 1 -78 24 -78 21 0 24 6 31 53 4 28 9 61 11 72 17 74 36 379 37 590
2 243 -9 402 -38 585 l-13 75 -2 -90z"/>
<path d="M1001 1353 c0 -5 4 -17 8 -28 7 -17 8 -17 13 8 4 19 1 27 -8 27 -8 0
-14 -3 -13 -7z"/>
<path d="M3629 1178 c-6 -24 -19 -61 -29 -84 -11 -22 -21 -59 -24 -82 -3 -23
-8 -48 -13 -55 -12 -19 -20 -116 -10 -120 6 -2 5 -13 -3 -26 -7 -15 -10 -39
-5 -66 l6 -43 56 29 c30 16 61 29 69 29 8 0 14 5 14 10 0 6 3 9 8 8 4 -1 23 4
42 11 19 8 40 15 45 16 6 2 62 19 125 39 63 20 131 42 151 47 35 11 65 42 54
58 -12 20 -109 33 -194 27 -84 -7 -278 -49 -314 -68 -10 -5 -20 -22 -24 -39
-3 -16 -10 -29 -15 -29 -17 0 0 49 52 153 45 92 47 100 34 125 -9 17 -12 41
-9 65 8 50 -2 47 -16 -5z"/>
<path d="M4124 1118 c9 -37 25 -78 30 -78 5 0 -24 92 -32 100 -3 3 -2 -7 2
-22z"/>
<path d="M3660 1030 c-7 -22 -16 -40 -20 -40 -4 0 -12 -11 -18 -25 -12 -26 -2
-34 16 -12 13 15 45 107 39 113 -2 2 -10 -14 -17 -36z"/>
<path d="M3840 1020 c-24 -34 -21 -36 52 -24 l38 7 -23 23 c-29 31 -41 30 -67
-6z"/>
<path d="M3950 841 c-58 -15 -127 -36 -155 -46 -52 -18 -95 -55 -95 -81 0 -8
-4 -14 -8 -14 -11 0 -32 -45 -32 -66 0 -9 10 -25 23 -35 20 -19 20 -19 1 -10
-11 5 -26 17 -33 25 -14 16 -45 10 -34 -7 4 -6 0 -8 -11 -4 -30 12 -6 -13 42
-44 61 -39 44 -37 -25 2 -30 17 -57 28 -61 24 -4 -4 25 -36 63 -72 54 -51 58
-56 17 -23 -29 23 -55 40 -58 38 -2 -3 24 -34 58 -69 61 -61 44 -50 -37 24
-22 20 -43 37 -47 37 -5 0 -8 5 -8 11 0 6 7 8 16 5 23 -9 8 10 -29 35 l-32 23
24 -27 c32 -35 15 -34 -26 1 -58 49 -76 61 -85 56 -9 -6 12 -31 26 -30 5 1 12
-9 17 -21 5 -13 14 -20 21 -18 7 3 42 -24 78 -60 73 -73 74 -87 2 -23 -32 28
-24 18 23 -32 75 -80 63 -77 -24 4 -30 28 -51 43 -47 33 3 -10 6 -28 6 -38 0
-11 4 -18 9 -15 10 7 101 -71 101 -87 0 -6 -16 4 -35 23 -43 42 -46 33 -4 -15
18 -20 29 -38 27 -41 -3 -2 -21 13 -41 35 -32 36 -36 37 -41 18 -4 -15 7 -32
39 -65 49 -48 63 -73 17 -29 -43 42 -60 31 -22 -13 28 -32 25 -35 -9 -8 -15
13 -27 26 -25 30 3 4 0 9 -5 12 -17 11 -19 -35 -3 -52 31 -32 55 -62 49 -62
-3 0 -15 10 -27 22 -11 12 -22 19 -25 16 -11 -11 170 -211 187 -206 5 2 -8 23
-28 48 l-38 45 50 -48 c45 -43 54 -47 94 -45 l44 1 -39 34 c-21 18 -32 33 -24
33 8 0 31 -16 52 -35 24 -22 48 -35 65 -35 26 1 26 2 -18 41 -29 26 -36 37
-20 29 14 -7 38 -24 55 -39 33 -30 20 -7 -29 49 -17 19 -3 8 32 -23 l63 -57
150 0 149 0 0 194 c0 181 -2 200 -29 307 -59 226 -125 371 -170 368 -9 0 -63
-13 -121 -28z m-274 -272 c3 -6 -5 -3 -20 6 -14 10 -26 19 -26 22 0 7 39 -17
46 -28z m-1 -189 c10 -11 16 -20 13 -20 -3 0 -13 9 -23 20 -10 11 -16 20 -13
20 3 0 13 -9 23 -20z m15 -45 c13 -14 21 -25 18 -25 -2 0 -15 11 -28 25 -13
14 -21 25 -18 25 2 0 15 -11 28 -25z m-29 -32 c13 -16 12 -17 -3 -4 -10 7 -18
15 -18 17 0 8 8 3 21 -13z m99 -149 c0 -8 -19 -13 -24 -6 -3 5 1 9 9 9 8 0 15
-2 15 -3z m20 -24 c0 -5 -2 -10 -4 -10 -3 0 -8 5 -11 10 -3 6 -1 10 4 10 6 0
11 -4 11 -10z m35 -30 c3 -5 2 -10 -4 -10 -5 0 -13 5 -16 10 -3 6 -2 10 4 10
5 0 13 -4 16 -10z"/>
<path d="M4160 803 c0 -12 62 -133 71 -139 21 -13 -18 116 -40 133 -18 14 -31
16 -31 6z"/>
<path d="M3575 691 c-10 -17 12 -21 25 -6 10 12 10 15 -3 15 -9 0 -18 -4 -22
-9z"/>
<path d="M3556 656 c3 -9 11 -16 16 -16 13 0 5 23 -10 28 -7 2 -10 -2 -6 -12z"/>
<path d="M3261 438 c0 -7 9 -35 19 -63 16 -44 19 -46 19 -21 1 34 -19 96 -31
96 -4 0 -8 -6 -7 -12z"/>
<path d="M3390 379 c0 -5 5 -7 10 -4 6 3 10 8 10 11 0 2 -4 4 -10 4 -5 0 -10
-5 -10 -11z"/>
<path d="M3262 360 c0 -14 2 -19 5 -12 2 6 2 18 0 25 -3 6 -5 1 -5 -13z"/>
<path d="M250 160 c0 -51 3 -91 6 -87 7 7 6 168 -1 175 -3 3 -5 -37 -5 -88z"/>
<path d="M2920 234 c0 -13 57 -68 87 -83 36 -18 40 -12 8 15 -16 14 -40 34
-52 45 -13 10 -23 16 -23 11 0 -4 -5 0 -10 8 -5 8 -10 10 -10 4z"/>
<path d="M3490 230 c0 -5 5 -10 10 -10 6 0 10 5 10 10 0 6 -4 10 -10 10 -5 0
-10 -4 -10 -10z"/>
<path d="M3464 198 c-4 -7 -9 -32 -10 -55 -2 -35 1 -45 19 -54 12 -6 45 -29
73 -50 41 -31 59 -39 93 -39 l43 0 -63 72 c-76 88 -127 138 -139 138 -5 0 -12
-5 -16 -12z"/>
<path d="M2461 189 c-1 -9 2 -19 7 -23 4 -4 7 -11 8 -14 3 -29 28 -132 34
-141 4 -7 16 -11 27 -9 18 3 16 11 -28 103 -26 55 -48 93 -48 84z"/>
<path d="M3257 179 c7 -7 15 -10 18 -7 3 3 -2 9 -12 12 -14 6 -15 5 -6 -5z"/>
<path d="M2440 163 c0 -5 6 -32 14 -59 8 -27 17 -61 20 -76 4 -16 10 -28 15
-28 10 0 -29 153 -42 166 -4 4 -7 3 -7 -3z"/>
<path d="M3328 143 c7 -3 16 -2 19 1 4 3 -2 6 -13 5 -11 0 -14 -3 -6 -6z"/>
<path d="M3395 90 c-3 -6 1 -7 9 -4 18 7 21 14 7 14 -6 0 -13 -4 -16 -10z"/>
<path d="M3210 74 c0 -10 42 -44 53 -44 6 0 0 11 -13 25 -22 24 -40 32 -40 19z"/>
<path d="M3365 72 c19 -19 119 -74 106 -58 -8 9 -9 16 -3 16 5 0 15 -7 22 -15
7 -9 26 -14 45 -12 31 2 32 3 18 20 -18 19 -38 24 -27 5 4 -6 -14 3 -40 21
-26 18 -54 31 -64 28 -13 -3 -11 -6 11 -17 15 -7 27 -17 27 -22 0 -4 -24 3
-52 18 -29 14 -48 22 -43 16z"/>
<path d="M3365 10 c3 -5 13 -10 21 -10 8 0 14 5 14 10 0 6 -9 10 -21 10 -11 0
-17 -4 -14 -10z"/>
</g>
</svg>
